<?xml version="1.0" encoding="UTF-8" standalone="no"?>
<svg
   xmlns:dc="http://purl.org/dc/elements/1.1/"
   xmlns:cc="http://creativecommons.org/ns#"
   xmlns:rdf="http://www.w3.org/1999/02/22-rdf-syntax-ns#"
   xmlns:svg="http://www.w3.org/2000/svg"
   xmlns="http://www.w3.org/2000/svg"
   xmlns:sodipodi="http://sodipodi.sourceforge.net/DTD/sodipodi-0.dtd"
   xmlns:inkscape="http://www.inkscape.org/namespaces/inkscape"
   width="114"
   height="28.00061"
   viewBox="0 0 114 28.00061"
   version="1.1"
   id="svg3775"
   sodipodi:docname="cam.svg"
   inkscape:version="0.92.4 (5da689c313, 2019-01-14)"
   style="fill:none">
  <metadata
     id="metadata3781">
    <rdf:RDF>
      <cc:Work
         rdf:about="">
        <dc:format>image/svg+xml</dc:format>
        <dc:type
           rdf:resource="http://purl.org/dc/dcmitype/StillImage" />
        <dc:title></dc:title>
      </cc:Work>
    </rdf:RDF>
  </metadata>
  <defs
     id="defs3779" />
  <sodipodi:namedview
     pagecolor="#ffffff"
     bordercolor="#666666"
     borderopacity="1"
     objecttolerance="10"
     gridtolerance="10"
     guidetolerance="10"
     inkscape:pageopacity="0"
     inkscape:pageshadow="2"
     inkscape:window-width="1904"
     inkscape:window-height="1144"
     id="namedview3777"
     showgrid="true"
     inkscape:zoom="16"
     inkscape:cx="66.616286"
     inkscape:cy="12.821529"
     inkscape:window-x="262"
     inkscape:window-y="88"
     inkscape:window-maximized="0"
     inkscape:current-layer="svg3775">
    <inkscape:grid
       type="xygrid"
       id="grid3818"
       originx="40"
       originy="-0.51953099" />
  </sodipodi:namedview>
  <path
     style="fill:#e3b873"
     d="M 48.933594,6.0939432e-4 C 48.701703,0.01135586 48.487664,0.15770827 48.402344,0.38928126 L 45.732422,7.6588125 c -0.11351,0.30876 0.04475,0.6501618 0.353515,0.7636719 l 2.796875,1.0273437 -0.617187,1.6777349 c -0.11325,0.3087 0.04476,0.652125 0.353516,0.765625 l 5.59375,2.052734 -0.410157,1.119141 c -0.3735,1.0021 -0.02644,2.129794 0.847657,2.746094 v 3.039062 h -8.015625 c -0.38802,-0.8871 -1.18256,-1.530062 -2.13086,-1.726562 v -1.251954 c 0,-0.329 -0.266433,-0.595703 -0.595703,-0.595703 h -2.400391 c -0.329013,0 -0.595703,0.266704 -0.595703,0.595703 v 9.533204 c 0,0.3293 0.26669,0.595703 0.595703,0.595703 h 2.400391 c 0.32927,0 0.595703,-0.266403 0.595703,-0.595703 v -1.251954 c 0.9483,-0.196799 1.74284,-0.841215 2.13086,-1.728515 h 8.015625 v 0.597656 c 0,0.9871 0.800009,1.787109 1.787109,1.787109 0.987,0 1.787109,-0.800009 1.787109,-1.787109 v -6.599609 c 0.5415,-0.2685 0.961422,-0.735235 1.169922,-1.302735 l 0.410157,-1.11914 5.033203,1.847656 c 0.0658,0.0243 0.135078,0.03516 0.205078,0.03516 0.2498,0 0.472393,-0.154172 0.558593,-0.388672 l 0.22461,-0.609375 c 1.9386,0.3647 3.805422,-0.911309 4.169922,-2.849609 0.1348,-0.7163 0.048,-1.456094 -0.25,-2.121094 l 3.611328,-1.853515 c 0.2928,-0.1500004 0.407812,-0.5099354 0.257812,-0.8027352 -0.068,-0.1329799 -0.184218,-0.2353593 -0.324218,-0.2871093 l -0.002,0.00195 L 49.167969,0.03771876 C 49.090839,0.00921726 49.010891,-0.00297277 48.933594,6.0939432e-4 Z M 49.314453,1.3619375 71.605469,9.6197496 66.707031,12.137329 c -0.0316,0.0027 -0.06295,0.0093 -0.09375,0.01758 l -5.3125,-1.951172 c -0.2117,-0.0777 -0.448781,-0.0295 -0.613281,0.125 L 59.013672,11.902953 47.056641,7.5123281 Z m 3.568359,6.0527343 -0.527343,1.4199219 z m -2.880859,2.4472658 8.947266,3.2851564 c 0.2118,0.077 0.448581,0.029 0.613281,-0.125 l 1.671875,-1.572265 4.6875,1.720703 L 64.689453,16.526 49.589844,10.981079 Z m 18.666016,2.6035154 c 0.2353,0.5505 0.252628,1.169722 0.04883,1.732422 -0.3775,1.0178 -1.392356,1.653628 -2.472656,1.548828 l 0.919921,-2.507812 z M 0.771484,12.977172 C 0.343978,12.977172 0,13.321152 0,13.748657 c 0,0.427505 0.343978,0.771484 0.771484,0.771484 H 31.228516 C 31.656022,14.520141 32,14.176162 32,13.748657 32,13.321152 31.656022,12.977172 31.228516,12.977172 Z m 82,0 C 82.343978,12.977172 82,13.321152 82,13.748657 c 0,0.427505 0.343978,0.771484 0.771484,0.771484 h 30.457036 c 0.4275,0 0.77148,-0.343979 0.77148,-0.771484 0,-0.427505 -0.34398,-0.771485 -0.77148,-0.771485 z m -27.441406,1.38086 3.019531,1.109375 0.335938,0.123046 -0.410156,1.119141 c -0.227,0.6171 -0.911797,0.933531 -1.529297,0.707031 L 55.625,17.006469 c -0.6175,-0.2267 -0.933731,-0.911597 -0.707031,-1.529297 z m 0.511719,3.996093 0.494141,0.177735 c 0.224499,0.0805 0.459065,0.126418 0.697265,0.136719 v 2.18164 H 55.841797 Z M 42.103516,18.467407 H 43.3125 v 8.341796 h -1.208984 z m 2.40039,1.890625 c 0.71354,0.2533 1.190407,0.926293 1.191406,1.683593 v 1.19336 c -9.99e-4,0.7571 -0.477866,1.429993 -1.191406,1.683594 z m 2.402344,1.683593 h 10.126953 v 1.19336 H 46.90625 Z m 8.935547,2.382813 h 1.191406 v 0.597656 c 0,0.329 -0.266703,0.595703 -0.595703,0.595703 -0.3291,0 -0.595703,-0.266703 -0.595703,-0.595703 z"
     id="rect3830-0"
     inkscape:connector-curvature="0" />
  <path
     inkscape:connector-curvature="0"
     style="stroke:#e3b873;stroke-linecap:round"
     d="m 52.88185,7.4144176 -0.52547,1.419923 m 2.81523,-0.57989 -0.52547,1.41992 m 2.74748,-0.59344 -0.52546,1.4199304"
     id="path18" />
</svg>
