<?xml version="1.0" encoding="UTF-8" standalone="no"?>
<svg
   xmlns:dc="http://purl.org/dc/elements/1.1/"
   xmlns:cc="http://creativecommons.org/ns#"
   xmlns:rdf="http://www.w3.org/1999/02/22-rdf-syntax-ns#"
   xmlns:svg="http://www.w3.org/2000/svg"
   xmlns="http://www.w3.org/2000/svg"
   xmlns:sodipodi="http://sodipodi.sourceforge.net/DTD/sodipodi-0.dtd"
   xmlns:inkscape="http://www.inkscape.org/namespaces/inkscape"
   width="114"
   height="28.00061"
   viewBox="0 0 114 28.00061"
   version="1.1"
   id="svg3775"
   sodipodi:docname="tools1.svg"
   inkscape:version="0.92.4 (5da689c313, 2019-01-14)"
   style="fill:none">
  <metadata
     id="metadata3781">
    <rdf:RDF>
      <cc:Work
         rdf:about="">
        <dc:format>image/svg+xml</dc:format>
        <dc:type
           rdf:resource="http://purl.org/dc/dcmitype/StillImage" />
        <dc:title></dc:title>
      </cc:Work>
    </rdf:RDF>
  </metadata>
  <defs
     id="defs3779" />
  <sodipodi:namedview
     pagecolor="#ffffff"
     bordercolor="#666666"
     borderopacity="1"
     objecttolerance="10"
     gridtolerance="10"
     guidetolerance="10"
     inkscape:pageopacity="0"
     inkscape:pageshadow="2"
     inkscape:window-width="1904"
     inkscape:window-height="1144"
     id="namedview3777"
     showgrid="true"
     inkscape:zoom="8"
     inkscape:cx="56.003022"
     inkscape:cy="12.821529"
     inkscape:window-x="262"
     inkscape:window-y="88"
     inkscape:window-maximized="1"
     inkscape:current-layer="svg3775">
    <inkscape:grid
       type="xygrid"
       id="grid3818"
       originx="40"
       originy="-0.51953099" />
  </sodipodi:namedview>
  <path
     id="rect3830-0"
     style="fill:#e3b873"
     d="M 0.77148438,12.976562 C 0.34397838,12.976562 0,13.320542 0,13.748047 c 0,0.427505 0.34397838,0.771484 0.77148438,0.771484 H 31.228516 C 31.656022,14.519531 32,14.175552 32,13.748047 32,13.320542 31.656022,12.976564 31.228516,12.976562 Z m 81.99999962,0 C 82.343978,12.976562 82,13.320542 82,13.748047 c 0,0.427505 0.343978,0.771484 0.771484,0.771484 h 30.457036 c 0.4275,0 0.77148,-0.343979 0.77148,-0.771484 0,-0.427505 -0.34398,-0.771483 -0.77148,-0.771485 z M 41.263672,25.474609 c -0.01361,0.03349 -0.02985,0.06588 -0.04297,0.09961 -0.0038,0.01665 -0.01078,0.03415 -0.002,0.04883 0.02526,0.04203 0.03278,-0.09265 0.04297,-0.140625 5.56e-4,-0.0026 0.0014,-0.0052 0.002,-0.0078 z m -0.261719,0.742188 c -0.0114,0.01763 -0.02804,0.03089 -0.03906,0.04883 -0.02817,0.04585 -0.03674,0.09808 -0.05078,0.148437 v 0.02148 c 0.02463,-0.05979 0.0425,-0.11333 0.08984,-0.21875 z" />
  <path
     style="fill:#e3b873"
     d="m 46.388672,0.027344 c -0.13993,0.04663 -0.279552,0.139117 -0.326172,0.232422 -0.09331,0.13993 -0.09331,0.326866 0,0.466796 l 1.306641,2.332032 c -0.27986,0.60635 -0.932968,0.97826 -1.585938,0.93164 L 44.429688,1.751953 c -0.04663,-0.13993 -0.233117,-0.232422 -0.373047,-0.232422 -0.139928,-0.04662 -0.279742,0.04562 -0.373047,0.185547 -1.119438,1.67915 -0.698693,3.917924 0.980468,5.083984 0.57852,0.41323 1.230546,0.644287 1.890626,0.691407 0.0074,0.0031 0.01383,0.0052 0.02148,0.0078 1.81909,0.93288 3.451954,2.147208 5.177734,3.873047 l 1.705078,1.666016 -9.914062,11.066406 c -0.373164,0.3731 -0.560547,0.887291 -0.560547,1.400391 0,0.5131 0.187383,0.978462 0.560547,1.351562 l 0.652344,0.654297 c 0.37316,0.3264 0.84022,0.511719 1.30664,0.511719 0.46641,0 0.978403,-0.185394 1.351563,-0.558594 l 9.904297,-11.085937 2.876953,2.876953 c 0.9786,0.9786 2.235309,2.701897 3.912109,5.216797 0.0601,0.8977 0.428125,1.734765 1.078125,2.384765 0.6996,0.6997 1.631828,1.074219 2.611328,1.074219 h 0.373047 c 0.1399,0 0.279747,-0.09447 0.373047,-0.234375 0.0933,-0.1399 0.0933,-0.326897 0,-0.466797 l -1.351563,-2.285156 c 0.3265,-0.6063 0.933213,-0.978241 1.632813,-0.931641 l 1.304687,2.238281 c 0.0466,0.1399 0.233047,0.232422 0.373047,0.232422 0.1865,-0.0466 0.326622,-0.09252 0.419922,-0.232422 1.1194,-1.6792 0.653985,-3.917884 -0.978515,-5.083984 -0.5815,-0.4092 -1.253741,-0.630116 -1.931641,-0.666016 -2.555,-1.6731 -4.227978,-2.92915 -5.205078,-3.90625 l -3.001953,-3 1.822265,-2.039062 c 0.3452,0.1949 0.715038,0.3221 1.085938,0.375 0.2798,0.0466 0.467697,0.04687 0.654297,0.04687 0.3732,0 0.46469,-3.28e-4 0.83789,0.326172 -0.1866,0.14 -0.279296,0.374222 -0.279296,0.607422 0,0.2332 0.0927,0.512718 0.279296,0.699218 l 1.632813,1.632813 c 0.2332,0.2798 0.607269,0.419922 0.980469,0.419922 0.3732,0 0.745315,-0.140297 0.978515,-0.466797 l 3.3125,-3.3125 c 0.2799,-0.2332 0.419922,-0.605316 0.419922,-0.978516 0,-0.3731 -0.140022,-0.700589 -0.419922,-0.980468 L 68.917969,8.28125 c -0.1866,-0.18655 -0.419044,-0.279297 -0.652344,-0.279297 -0.2332,0 -0.467697,0.139367 -0.654297,0.279297 -0.3731,-0.32648 -0.373047,-0.419809 -0.373047,-0.792969 0,-0.18656 0.0015,-0.419359 -0.0918,-0.699219 -0.0933,-0.65303 -0.420493,-1.305259 -0.933593,-1.818359 L 64.533203,3.291016 c -0.9795,-0.979501 -1.445678,-1.44614 -2.705078,-2.00586 -2.7053,-1.259365 -5.45738,-1.026121 -9.46875,0.792969 -0.23323,0.0933 -0.325927,0.280442 -0.279297,0.513672 0.04663,0.23323 0.233617,0.373047 0.466797,0.373047 h 0.605469 c 2.0523,0 3.124434,-4.86e-4 4.990234,1.865234 0.8169,0.81695 0.841375,2.070568 0.109375,2.992188 -0.0986,0.01487 -0.173247,0.05809 -0.248047,0.132812 l -2.072265,2.3125 -1.566407,-1.566406 c -1.72149,-1.72146 -2.931381,-3.348549 -3.863281,-5.16211 -0.04892,-0.91769 -0.417278,-1.776643 -1.080078,-2.439453 -0.7929,-0.792896 -1.913763,-1.16557 -3.033203,-1.072265 z m 0.886719,0.978515 c 0.55972,0.09331 1.072397,0.373179 1.492187,0.792969 0.4809,0.52096 0.788441,1.178979 0.806641,1.886719 -0.009,0.03591 -0.01367,0.07558 -0.01367,0.11914 0,0.21602 -0.02595,0.425787 -0.07422,0.628907 -0.17595,0.67538 -0.598387,1.26477 -1.185547,1.65625 -0.93288,0.60634 -2.19217,0.606095 -3.125,-0.04687 -0.9795,-0.69976 -1.398749,-1.958685 -1.072265,-3.078125 l 0.980468,1.679687 c 0.0933,0.13993 0.233117,0.232422 0.373047,0.232422 h 0.232422 c 1.07281,0.04663 2.053121,-0.512482 2.519531,-1.445312 l 0.0918,-0.234375 c 0.0933,-0.13993 0.0933,-0.278039 0,-0.417969 z m 11.154297,0.425782 c 1.066962,0.01749 2.04589,0.250229 3.02539,0.693359 1.1195,0.46642 1.493156,0.840802 2.472656,1.820312 l 1.677735,1.677735 c 0.3731,0.37317 0.607597,0.84022 0.654297,1.30664 0.0466,0.23323 0.04687,0.420617 0.04687,0.560547 0,0.51309 0.04577,0.885593 0.605468,1.445313 0.1865,0.18655 0.466019,0.279297 0.699219,0.279297 0.2799,0 0.514397,-0.09275 0.654297,-0.279297 l 1.632813,1.632812 c 0.0933,0.0933 0.138671,0.186272 0.138671,0.326172 0,0.1399 -0.04537,0.232872 -0.138671,0.326172 l -3.3125,3.3125 c -0.1866,0.1865 -0.465744,0.1865 -0.652344,0 l -1.632813,-1.632812 c 0.1866,-0.1399 0.279022,-0.374397 0.232422,-0.654297 0,-0.2332 -0.0927,-0.512719 -0.279297,-0.699219 -0.5597,-0.5598 -0.932312,-0.605469 -1.445312,-0.605469 -0.1399,0 -0.327347,-2.75e-4 -0.560547,-0.04687 -0.5131,-0.0466 -0.933541,-0.279243 -1.306641,-0.652343 L 58.935542,8.236333 C 59.961647,6.977018 59.8695,5.203424 58.75,4.083984 57.2574,2.638054 56.138306,2.17118 54.878906,2.03125 56.208256,1.61146 57.362725,1.414151 58.429688,1.431641 Z m -8.123047,3.632812 c 0.8862,1.4926 2.007,2.891716 3.40625,4.291016 l 1.601562,1.601562 -1.255859,1.402344 -1.652344,-1.652344 c -1.3993,-1.445889 -2.798406,-2.564912 -4.291016,-3.451172 0.23324,-0.0933 0.512914,-0.233117 0.746094,-0.373047 0.69965,-0.46642 1.165453,-1.072089 1.445313,-1.818359 z m 8.048828,3.941406 1.958984,1.958985 -1.925781,2.154297 c -0.055,0.0233 -0.103844,0.05892 -0.152344,0.107421 l -1.865234,2.09961 c -0.0533,0.0533 -0.09048,0.113634 -0.113282,0.177734 l -10.054687,11.25 c -0.37317,0.3732 -0.980346,0.418022 -1.353516,0.04492 l -0.652343,-0.605469 c -0.18655,-0.1865 -0.279297,-0.419143 -0.279297,-0.652343 0,-0.2799 0.09299,-0.514847 0.326172,-0.748047 l 0.263671,-0.294922 0.667969,0.669922 c 0.0933,0.0933 0.188195,0.138672 0.328125,0.138672 0.13993,0 0.232922,-0.04537 0.326172,-0.138672 0.18655,-0.1866 0.18655,-0.467697 0,-0.654297 L 45.125,23.808592 l 0.615234,-0.689453 0.742188,0.742187 c 0.09331,0.0933 0.186242,0.140625 0.326172,0.140625 0.13993,0 0.232922,-0.04733 0.326172,-0.140625 0.18656,-0.1865 0.18656,-0.465744 0,-0.652344 l -0.777344,-0.779296 z m 0.318359,5.21875 3.013672,3.013672 c 0.8396,0.8862 2.285866,2.004997 4.384766,3.404297 -0.2798,0.0933 -0.560044,0.233422 -0.839844,0.419922 -0.5787,0.3617 -0.987838,0.862869 -1.273438,1.417969 -0.0042,0.0079 -0.0076,0.01739 -0.01172,0.02539 -0.0169,0.0334 -0.03478,0.06591 -0.05078,0.09961 -0.023,0.0479 -0.04355,0.09758 -0.06445,0.146484 -0.0144,0.0331 -0.02947,0.06631 -0.04297,0.09961 -0.0019,0.0048 -0.004,0.0089 -0.0059,0.01367 -0.0147,0.0365 -0.02917,0.07268 -0.04297,0.109375 -0.2649,-0.3886 -0.520425,-0.754209 -0.765625,-1.099609 l 0.626953,-0.625 c 0.186501,-0.1865 0.1865,-0.467697 0,-0.654297 -0.186599,-0.1865 -0.467696,-0.1865 -0.654296,0 l -0.519532,0.519531 c -0.1938,-0.263 -0.382,-0.51084 -0.5625,-0.74414 l 0.429688,-0.427735 c 0.1865,-0.1866 0.1865,-0.465743 0,-0.652343 -0.1866,-0.1866 -0.465744,-0.1866 -0.652344,0 l -0.357422,0.355468 c -0.3428,-0.4131 -0.658318,-0.76574 -0.949218,-1.05664 l -2.9375,-2.9375 z m 8.564453,7.164063 c 0.5597,0 1.119538,0.187072 1.585938,0.513672 0.9797,0.6996 1.398865,1.958625 1.072265,3.078125 l -0.978515,-1.679688 c -0.0933,-0.1399 -0.233147,-0.232422 -0.373047,-0.232422 H 68.3125 c -1.0728,-0.0933 -2.053131,0.512513 -2.519531,1.445313 l -0.09375,0.234375 c -0.0933,0.14 -0.0933,0.280022 0,0.419922 l 1.027343,1.771484 c -0.5597,-0.0933 -1.07434,-0.373169 -1.49414,-0.792969 -0.4718,-0.5111 -0.775988,-1.155256 -0.804688,-1.847656 0.008,-0.0341 0.01172,-0.07033 0.01172,-0.111328 0,-0.5909 0.188625,-1.144681 0.515625,-1.613281 0.2008,-0.2795 0.451441,-0.52355 0.744141,-0.71875 0.4664,-0.3265 0.979262,-0.466797 1.539061,-0.466797 z"
     id="path27"
     inkscape:connector-curvature="0" />
</svg>
